<svg xmlns="http://www.w3.org/2000/svg" width="19" height="19" viewBox="0 0 19 19"><defs><style>.a{opacity:0.6;}</style></defs><path class="a" d="M16.964,2.25H2.036A2.036,2.036,0,0,0,0,4.286V19.214A2.036,2.036,0,0,0,2.036,21.25H7.857V14.79H5.185V11.75H7.857V9.433c0-2.636,1.569-4.092,3.973-4.092a16.187,16.187,0,0,1,2.355.205V8.133H12.858a1.52,1.52,0,0,0-1.714,1.643V11.75H14.06l-.467,3.04h-2.45v6.46h5.821A2.036,2.036,0,0,0,19,19.214V4.286A2.036,2.036,0,0,0,16.964,2.25Z" transform="translate(0 -2.25)"/></svg>