<svg xmlns="http://www.w3.org/2000/svg" width="19" height="19" viewBox="0 0 19 19"><defs><style>.a{opacity:0.6;}</style></defs><g class="a" transform="translate(-4.5 -4.5)"><path d="M17.958,6.083a3.97,3.97,0,0,1,3.958,3.958v7.917a3.97,3.97,0,0,1-3.958,3.958H10.042a3.97,3.97,0,0,1-3.958-3.958V10.042a3.97,3.97,0,0,1,3.958-3.958h7.917m0-1.583H10.042A5.558,5.558,0,0,0,4.5,10.042v7.917A5.558,5.558,0,0,0,10.042,23.5h7.917A5.558,5.558,0,0,0,23.5,17.958V10.042A5.558,5.558,0,0,0,17.958,4.5Z"/><path d="M24.813,11.375A1.187,1.187,0,1,1,26,10.187,1.185,1.185,0,0,1,24.813,11.375Z" transform="translate(-5.667 -1.333)"/><path d="M16,12.833A3.167,3.167,0,1,1,12.833,16,3.17,3.17,0,0,1,16,12.833m0-1.583A4.75,4.75,0,1,0,20.75,16,4.751,4.751,0,0,0,16,11.25Z" transform="translate(-2 -2)"/></g></svg>