<svg xmlns="http://www.w3.org/2000/svg" width="19" height="19" viewBox="0 0 19 19"><defs><style>.a{opacity:0.6;}</style></defs><path class="a" d="M16.964,2.25H2.036A2.036,2.036,0,0,0,0,4.286V19.214A2.036,2.036,0,0,0,2.036,21.25H16.964A2.036,2.036,0,0,0,19,19.214V4.286A2.036,2.036,0,0,0,16.964,2.25ZM14.89,8.985c.008.119.008.242.008.36a7.86,7.86,0,0,1-7.914,7.914,7.877,7.877,0,0,1-4.271-1.247,5.86,5.86,0,0,0,.67.034,5.577,5.577,0,0,0,3.452-1.187,2.785,2.785,0,0,1-2.6-1.93,3,3,0,0,0,1.255-.051,2.782,2.782,0,0,1-2.227-2.731v-.034a2.78,2.78,0,0,0,1.255.352A2.776,2.776,0,0,1,3.283,8.149a2.747,2.747,0,0,1,.377-1.4A7.9,7.9,0,0,0,9.394,9.655a2.787,2.787,0,0,1,4.746-2.54,5.45,5.45,0,0,0,1.764-.67,2.774,2.774,0,0,1-1.221,1.531,5.535,5.535,0,0,0,1.6-.433A5.855,5.855,0,0,1,14.89,8.985Z" transform="translate(0 -2.25)"/></svg>